<svg height="512pt" viewBox="-67 0 512 512" width="512pt" xmlns="http://www.w3.org/2000/svg">
	<style>
	path {
		fill: #fff;
	}
</style><path d="m188.84375 278.226562c7.175781 0 14-3.109374 18.71875-8.527343 2.722656-3.121094 2.398438-7.855469-.722656-10.578125-3.125-2.726563-7.863282-2.398438-10.582032.726562-1.875 2.144532-4.574218 3.378906-7.414062 3.378906s-5.542969-1.234374-7.414062-3.378906c-2.71875-3.125-7.460938-3.449218-10.582032-.726562s-3.445312 7.457031-.726562 10.578125c4.722656 5.417969 11.546875 8.527343 18.722656 8.527343zm-49.566406-6.320312c4.144531 0 7.5-3.355469 7.5-7.5v-8.226562c0-4.144532-3.355469-7.5-7.5-7.5-4.140625 0-7.5 3.355468-7.5 7.5v8.226562c0 4.144531 3.359375 7.5 7.5 7.5zm99.128906 0c4.144531 0 7.5-3.355469 7.5-7.5v-8.226562c0-4.144532-3.355469-7.5-7.5-7.5-4.140625 0-7.5 3.355468-7.5 7.5v8.226562c0 4.144531 3.359375 7.5 7.5 7.5zm80.667969-212.476562c-4.019531 0-7.28125 3.261718-7.28125 7.285156 0 4.019531 3.261719 7.28125 7.28125 7.28125 4.023437 0 7.285156-3.261719 7.285156-7.28125 0-4.023438-3.261719-7.285156-7.285156-7.285156zm-157.734375-23.53125c-4.023438 0-7.28125 3.261718-7.28125 7.285156 0 4.019531 3.257812 7.28125 7.28125 7.28125 4.023437 0 7.28125-3.261719 7.28125-7.28125 0-4.023438-3.257813-7.285156-7.28125-7.285156zm131.71875-24.8125c-10.542969 0-20.835938 1.710937-30.585938 5.089843-7.882812 2.730469-16.832031 1.679688-24.546875-2.890625-14.683593-8.691406-31.652343-13.285156-49.082031-13.285156s-34.402344 4.59375-49.082031 13.285156c-7.714844 4.566406-16.664063 5.621094-24.546875 2.890625-9.75-3.378906-20.042969-5.089843-30.585938-5.089843-46.664062 0-84.628906 33.886718-84.628906 75.535156 0 24.253906 12.886719 45.859375 32.855469 59.691406v49.449219c0 25 2.996093 49.984375 8.910156 74.269531l7.699219 31.613281c7.222656 29.660157 11.105468 60.183594 11.539062 90.714844l.8125 57.554687c.234375 16.652344 6.894532 32.261719 18.753906 43.953126 11.859376 11.691406 27.5625 18.132812 44.214844 18.132812h128.113282c16.65625 0 32.355468-6.441406 44.214843-18.132812 11.859375-11.691407 18.519531-27.300782 18.753907-43.953126l.816406-57.554687c.429687-30.527344 4.3125-61.046875 11.535156-90.714844l7.699219-31.613281c5.914062-24.285156 8.910156-49.269531 8.910156-74.269531v-49.449219c19.96875-13.832031 32.855469-35.4375 32.855469-59.691406.003906-41.648438-37.960938-75.535156-84.625-75.535156zm36.769531 184.675781c0 23.804687-2.851563 47.597656-8.484375 70.722656l-7.699219 31.613281c-7.488281 30.757813-11.511719 62.398438-11.960937 94.050782l-.8125 57.554687c-.371094 26.078125-21.886719 47.296875-47.96875 47.296875h-128.117188c-26.082031 0-47.601562-21.21875-47.96875-47.296875l-.816406-57.558594c-.445312-31.652343-4.472656-63.296875-11.960938-94.046875l-7.695312-31.613281c-5.632812-23.125-8.488281-46.917969-8.488281-70.722656v-41.117188c7.550781 3.265625 15.722656 5.554688 24.3125 6.691407v29.710937c0 24.996094 3 49.980469 8.914062 74.265625l7.632813 31.34375c7.222656 29.664062 11.101562 60.183594 11.535156 90.710938l.789062 55.964843c.230469 16.1875 13.589844 29.355469 29.773438 29.355469h116.058594c16.1875 0 29.542968-13.167969 29.773437-29.355469l.789063-55.964843c.433594-30.527344 4.316406-61.042969 11.539062-90.707032l7.632813-31.347656c5.914062-24.28125 8.910156-49.269531 8.910156-74.265625v-29.710937c8.589844-1.136719 16.761719-3.425782 24.3125-6.691407zm-167.355469 31.277343c20.394532 0 36.984375-16.59375 36.984375-36.984374v-22.527344c0-.949219.738281-1.738282 1.722657-1.839844 12.355468-1.285156 23.925781-4.472656 34.390624-9.46875 7.074219-3.382812 15.46875-3.59375 23.035157-.582031 10.097656 4.023437 20.824219 6.175781 31.910156 6.464843v28.945313c0 23.800781-2.855469 47.59375-8.484375 70.71875l-7.632812 31.34375c-7.488282 30.757813-11.511719 62.398437-11.960938 94.042969l-.117188 8.394531h-10.273437c-4.144531 0-7.5 3.359375-7.5 7.5 0 4.144531 3.355469 7.5 7.5 7.5h10.058594l-.457031 32.574219c-.117188 8.03125-6.742188 14.566406-14.777344 14.566406h-116.054688c-8.035156 0-14.664062-6.535156-14.777344-14.566406l-.460937-32.574219h101.289063c4.144531 0 7.5-3.355469 7.5-7.5 0-4.140625-3.355469-7.5-7.5-7.5h-101.5l-.121094-8.394531c-.445313-31.648438-4.472656-63.289063-11.960938-94.042969l-7.628906-31.34375c-5.632812-23.125-8.488281-46.917969-8.488281-70.71875v-28.945313c11.460937-.300781 22.519531-2.585937 32.898437-6.863281 1.566406-.648437 3.214844-1.132812 4.898438-1.449219.0625-.011718.234375-.042968.398437.09375.121094.101563.121094.191407.121094.261719v35.910157c0 20.390624 16.59375 36.984374 36.988281 36.984374zm130.585938-79.878906c-10.082032 0-19.808594-1.835937-28.902344-5.460937-11.441406-4.554688-24.214844-4.195313-35.054688.980469-8.910156 4.257812-18.828124 6.980468-29.476562 8.085937-8.644531.898437-15.167969 8.105469-15.167969 16.761719v22.523437c0 12.125-9.863281 21.988281-21.984375 21.988281-12.125 0-21.988281-9.863281-21.988281-21.988281v-35.910156c0-4.574219-2.015625-8.875-5.535156-11.796875-2.800781-2.324219-6.285157-3.566406-9.867188-3.566406-.949219 0-1.910156.089844-2.863281.269531-2.695312.5-5.34375 1.28125-7.867188 2.320313-9.324218 3.84375-19.324218 5.792968-29.722656 5.792968-38.394531 0-69.628906-27.15625-69.628906-60.539062 0-33.378906 31.234375-60.535156 69.628906-60.535156 8.867188 0 17.507813 1.433593 25.675782 4.265624 12.058593 4.175782 25.582031 2.660157 37.101562-4.15625 12.367188-7.324218 26.695312-11.195312 41.4375-11.195312s29.070312 3.871094 41.4375 11.191406c11.519531 6.820313 25.039062 8.335938 37.101562 4.160156 8.167969-2.832031 16.808594-4.269531 25.675782-4.269531 38.390625 0 69.628906 27.15625 69.628906 60.539063 0 33.382812-31.238281 60.539062-69.628906 60.539062zm-61.015625-40.558594c-4.023438 0-7.285157 3.261719-7.285157 7.285157 0 4.019531 3.261719 7.28125 7.285157 7.28125 4.023437 0 7.28125-3.261719 7.28125-7.28125 0-4.023438-3.257813-7.285157-7.28125-7.285157zm-170.855469-16.671874c-4.023438 0-7.285156 3.257812-7.285156 7.28125 0 4.023437 3.261718 7.28125 7.285156 7.28125s7.28125-3.257813 7.28125-7.28125c.003906-4.023438-3.257812-7.28125-7.28125-7.28125zm0 0"/></svg>